G04 #@! TF.FileFunction,Soldermask,Bot*
%FSLAX46Y46*%
G04 Gerber Fmt 4.6, Leading zero omitted, Abs format (unit mm)*
G04 Created by KiCad (PCBNEW 4.0.6) date Wednesday, September 13, 2017 'PMt' 06:10:32 PM*
%MOMM*%
%LPD*%
G01*
G04 APERTURE LIST*
%ADD10C,0.100000*%
%ADD11C,4.464000*%
%ADD12R,2.100000X2.100000*%
%ADD13O,2.100000X2.100000*%
%ADD14C,2.000000*%
%ADD15R,2.000000X2.000000*%
G04 APERTURE END LIST*
D10*
D11*
X53300000Y-53300000D03*
D12*
X53340000Y-63500000D03*
D13*
X55880000Y-63500000D03*
X58420000Y-63500000D03*
X60960000Y-63500000D03*
D12*
X53340000Y-66040000D03*
D13*
X55880000Y-66040000D03*
X58420000Y-66040000D03*
X60960000Y-66040000D03*
D12*
X67310000Y-68580000D03*
D13*
X69850000Y-68580000D03*
X72390000Y-68580000D03*
X74930000Y-68580000D03*
D12*
X67310000Y-71120000D03*
D13*
X69850000Y-71120000D03*
X72390000Y-71120000D03*
X74930000Y-71120000D03*
D12*
X102870000Y-67310000D03*
D13*
X102870000Y-69850000D03*
X102870000Y-72390000D03*
X102870000Y-74930000D03*
D12*
X100330000Y-67310000D03*
D13*
X100330000Y-69850000D03*
X100330000Y-72390000D03*
X100330000Y-74930000D03*
D12*
X66040000Y-46990000D03*
D13*
X63500000Y-46990000D03*
D12*
X88900000Y-69850000D03*
D13*
X88900000Y-72390000D03*
X88900000Y-74930000D03*
D12*
X91440000Y-69850000D03*
D13*
X91440000Y-72390000D03*
X91440000Y-74930000D03*
D14*
X104140000Y-54610000D03*
X104140000Y-52070000D03*
X104140000Y-49530000D03*
X104140000Y-46990000D03*
X104140000Y-57150000D03*
X104140000Y-59690000D03*
X104140000Y-62230000D03*
X101600000Y-46990000D03*
X99060000Y-46990000D03*
X96520000Y-46990000D03*
X93980000Y-46990000D03*
X91440000Y-46990000D03*
X88900000Y-46990000D03*
X86360000Y-46990000D03*
X83820000Y-46990000D03*
X81280000Y-46990000D03*
X78740000Y-46990000D03*
X76200000Y-46990000D03*
X73660000Y-46990000D03*
X71120000Y-46990000D03*
X73660000Y-49530000D03*
X78740000Y-49530000D03*
X81280000Y-49530000D03*
X83820000Y-49530000D03*
X101600000Y-62230000D03*
X99060000Y-62230000D03*
X96520000Y-62230000D03*
X93980000Y-62230000D03*
X91440000Y-62230000D03*
X88900000Y-62230000D03*
X86360000Y-62230000D03*
X83820000Y-62230000D03*
X81280000Y-62230000D03*
X78740000Y-62230000D03*
X76200000Y-62230000D03*
X73660000Y-62230000D03*
D15*
X71120000Y-62230000D03*
D14*
X86360000Y-54610000D03*
X88900000Y-54610000D03*
X91440000Y-54610000D03*
X93980000Y-54610000D03*
X96520000Y-54610000D03*
X99060000Y-54610000D03*
X101600000Y-54610000D03*
X101600000Y-52070000D03*
X99060000Y-52070000D03*
X96520000Y-52070000D03*
X93980000Y-52070000D03*
X91440000Y-52070000D03*
X88900000Y-52070000D03*
X86360000Y-52070000D03*
D11*
X109200000Y-53300000D03*
X53300000Y-72400000D03*
X109200000Y-72400000D03*
D12*
X82550000Y-69850000D03*
D13*
X82550000Y-72390000D03*
X82550000Y-74930000D03*
D12*
X85090000Y-69850000D03*
D13*
X85090000Y-72390000D03*
X85090000Y-74930000D03*
M02*
