M48
;DRILL file {KiCad 4.0.6} date Wednesday, September 13, 2017 'PMt' 06:10:43 PM
;FORMAT={-:-/ absolute / inch / decimal}
FMAT,2
INCH,TZ
T1C0.039
T2C0.043
T3C0.120
%
G90
G05
M72
T1
X2.1Y-2.5
X2.1Y-2.6
X2.2Y-2.5
X2.2Y-2.6
X2.3Y-2.5
X2.3Y-2.6
X2.4Y-2.5
X2.4Y-2.6
X2.5Y-1.85
X2.6Y-1.85
X2.65Y-2.7
X2.65Y-2.8
X2.75Y-2.7
X2.75Y-2.8
X2.85Y-2.7
X2.85Y-2.8
X2.95Y-2.7
X2.95Y-2.8
X3.25Y-2.75
X3.25Y-2.85
X3.25Y-2.95
X3.35Y-2.75
X3.35Y-2.85
X3.35Y-2.95
X3.5Y-2.75
X3.5Y-2.85
X3.5Y-2.95
X3.6Y-2.75
X3.6Y-2.85
X3.6Y-2.95
X3.95Y-2.65
X3.95Y-2.75
X3.95Y-2.85
X3.95Y-2.95
X4.05Y-2.65
X4.05Y-2.75
X4.05Y-2.85
X4.05Y-2.95
T2
X2.8Y-1.85
X2.8Y-2.45
X2.9Y-1.85
X2.9Y-1.95
X2.9Y-2.45
X3.Y-1.85
X3.Y-2.45
X3.1Y-1.85
X3.1Y-1.95
X3.1Y-2.45
X3.2Y-1.85
X3.2Y-1.95
X3.2Y-2.45
X3.3Y-1.85
X3.3Y-1.95
X3.3Y-2.45
X3.4Y-1.85
X3.4Y-2.05
X3.4Y-2.15
X3.4Y-2.45
X3.5Y-1.85
X3.5Y-2.05
X3.5Y-2.15
X3.5Y-2.45
X3.6Y-1.85
X3.6Y-2.05
X3.6Y-2.15
X3.6Y-2.45
X3.7Y-1.85
X3.7Y-2.05
X3.7Y-2.15
X3.7Y-2.45
X3.8Y-1.85
X3.8Y-2.05
X3.8Y-2.15
X3.8Y-2.45
X3.9Y-1.85
X3.9Y-2.05
X3.9Y-2.15
X3.9Y-2.45
X4.Y-1.85
X4.Y-2.05
X4.Y-2.15
X4.Y-2.45
X4.1Y-1.85
X4.1Y-1.95
X4.1Y-2.05
X4.1Y-2.15
X4.1Y-2.25
X4.1Y-2.35
X4.1Y-2.45
T3
X2.0984Y-2.0984
X2.0984Y-2.8504
X4.2992Y-2.0984
X4.2992Y-2.8504
T0
M30
