G04 #@! TF.FileFunction,Legend,Top*
%FSLAX46Y46*%
G04 Gerber Fmt 4.6, Leading zero omitted, Abs format (unit mm)*
G04 Created by KiCad (PCBNEW 4.0.6) date Wednesday, September 13, 2017 'PMt' 06:10:32 PM*
%MOMM*%
%LPD*%
G01*
G04 APERTURE LIST*
%ADD10C,0.100000*%
%ADD11C,0.300000*%
%ADD12C,0.120000*%
%ADD13C,0.150000*%
G04 APERTURE END LIST*
D10*
D11*
X63357143Y-71798571D02*
X62857143Y-71084286D01*
X62500000Y-71798571D02*
X62500000Y-70298571D01*
X63071428Y-70298571D01*
X63214286Y-70370000D01*
X63285714Y-70441429D01*
X63357143Y-70584286D01*
X63357143Y-70798571D01*
X63285714Y-70941429D01*
X63214286Y-71012857D01*
X63071428Y-71084286D01*
X62500000Y-71084286D01*
X64714286Y-71798571D02*
X64000000Y-71798571D01*
X64000000Y-70298571D01*
X63214286Y-69258571D02*
X62714286Y-68544286D01*
X62357143Y-69258571D02*
X62357143Y-67758571D01*
X62928571Y-67758571D01*
X63071429Y-67830000D01*
X63142857Y-67901429D01*
X63214286Y-68044286D01*
X63214286Y-68258571D01*
X63142857Y-68401429D01*
X63071429Y-68472857D01*
X62928571Y-68544286D01*
X62357143Y-68544286D01*
X64714286Y-69258571D02*
X64214286Y-68544286D01*
X63857143Y-69258571D02*
X63857143Y-67758571D01*
X64428571Y-67758571D01*
X64571429Y-67830000D01*
X64642857Y-67901429D01*
X64714286Y-68044286D01*
X64714286Y-68258571D01*
X64642857Y-68401429D01*
X64571429Y-68472857D01*
X64428571Y-68544286D01*
X63857143Y-68544286D01*
X85768571Y-67039999D02*
X85054286Y-67539999D01*
X85768571Y-67897142D02*
X84268571Y-67897142D01*
X84268571Y-67325714D01*
X84340000Y-67182856D01*
X84411429Y-67111428D01*
X84554286Y-67039999D01*
X84768571Y-67039999D01*
X84911429Y-67111428D01*
X84982857Y-67182856D01*
X85054286Y-67325714D01*
X85054286Y-67897142D01*
X85625714Y-65539999D02*
X85697143Y-65611428D01*
X85768571Y-65825714D01*
X85768571Y-65968571D01*
X85697143Y-66182856D01*
X85554286Y-66325714D01*
X85411429Y-66397142D01*
X85125714Y-66468571D01*
X84911429Y-66468571D01*
X84625714Y-66397142D01*
X84482857Y-66325714D01*
X84340000Y-66182856D01*
X84268571Y-65968571D01*
X84268571Y-65825714D01*
X84340000Y-65611428D01*
X84411429Y-65539999D01*
X84411429Y-64968571D02*
X84340000Y-64897142D01*
X84268571Y-64754285D01*
X84268571Y-64397142D01*
X84340000Y-64254285D01*
X84411429Y-64182856D01*
X84554286Y-64111428D01*
X84697143Y-64111428D01*
X84911429Y-64182856D01*
X85768571Y-65039999D01*
X85768571Y-64111428D01*
X83228571Y-67039999D02*
X82514286Y-67539999D01*
X83228571Y-67897142D02*
X81728571Y-67897142D01*
X81728571Y-67325714D01*
X81800000Y-67182856D01*
X81871429Y-67111428D01*
X82014286Y-67039999D01*
X82228571Y-67039999D01*
X82371429Y-67111428D01*
X82442857Y-67182856D01*
X82514286Y-67325714D01*
X82514286Y-67897142D01*
X83085714Y-65539999D02*
X83157143Y-65611428D01*
X83228571Y-65825714D01*
X83228571Y-65968571D01*
X83157143Y-66182856D01*
X83014286Y-66325714D01*
X82871429Y-66397142D01*
X82585714Y-66468571D01*
X82371429Y-66468571D01*
X82085714Y-66397142D01*
X81942857Y-66325714D01*
X81800000Y-66182856D01*
X81728571Y-65968571D01*
X81728571Y-65825714D01*
X81800000Y-65611428D01*
X81871429Y-65539999D01*
X83228571Y-64111428D02*
X83228571Y-64968571D01*
X83228571Y-64539999D02*
X81728571Y-64539999D01*
X81942857Y-64682856D01*
X82085714Y-64825714D01*
X82157143Y-64968571D01*
X75037143Y-73552857D02*
X75251429Y-73624286D01*
X75322857Y-73695714D01*
X75394286Y-73838571D01*
X75394286Y-74052857D01*
X75322857Y-74195714D01*
X75251429Y-74267143D01*
X75108571Y-74338571D01*
X74537143Y-74338571D01*
X74537143Y-72838571D01*
X75037143Y-72838571D01*
X75180000Y-72910000D01*
X75251429Y-72981429D01*
X75322857Y-73124286D01*
X75322857Y-73267143D01*
X75251429Y-73410000D01*
X75180000Y-73481429D01*
X75037143Y-73552857D01*
X74537143Y-73552857D01*
X72032857Y-73910000D02*
X72747143Y-73910000D01*
X71890000Y-74338571D02*
X72390000Y-72838571D01*
X72890000Y-74338571D01*
X69278572Y-73767143D02*
X70421429Y-73767143D01*
X66738572Y-73767143D02*
X67881429Y-73767143D01*
X67310000Y-74338571D02*
X67310000Y-73195714D01*
X63742143Y-65932857D02*
X63242143Y-65932857D01*
X63242143Y-66718571D02*
X63242143Y-65218571D01*
X63956429Y-65218571D01*
X65242143Y-66718571D02*
X64527857Y-66718571D01*
X64527857Y-65218571D01*
X63599286Y-63392857D02*
X63099286Y-63392857D01*
X63099286Y-64178571D02*
X63099286Y-62678571D01*
X63813572Y-62678571D01*
X65242143Y-64178571D02*
X64742143Y-63464286D01*
X64385000Y-64178571D02*
X64385000Y-62678571D01*
X64956428Y-62678571D01*
X65099286Y-62750000D01*
X65170714Y-62821429D01*
X65242143Y-62964286D01*
X65242143Y-63178571D01*
X65170714Y-63321429D01*
X65099286Y-63392857D01*
X64956428Y-63464286D01*
X64385000Y-63464286D01*
X52328571Y-57598571D02*
X52685714Y-59098571D01*
X52971428Y-58027143D01*
X53257142Y-59098571D01*
X53614285Y-57598571D01*
X54185714Y-59098571D02*
X54185714Y-57598571D01*
X54185714Y-58312857D02*
X55042857Y-58312857D01*
X55042857Y-59098571D02*
X55042857Y-57598571D01*
X56471429Y-59098571D02*
X55757143Y-59098571D01*
X55757143Y-57598571D01*
X58114286Y-58312857D02*
X58614286Y-58312857D01*
X58828572Y-59098571D02*
X58114286Y-59098571D01*
X58114286Y-57598571D01*
X58828572Y-57598571D01*
X59471429Y-59098571D02*
X59471429Y-57598571D01*
X60328572Y-59098571D01*
X60328572Y-57598571D01*
X61900001Y-58955714D02*
X61828572Y-59027143D01*
X61614286Y-59098571D01*
X61471429Y-59098571D01*
X61257144Y-59027143D01*
X61114286Y-58884286D01*
X61042858Y-58741429D01*
X60971429Y-58455714D01*
X60971429Y-58241429D01*
X61042858Y-57955714D01*
X61114286Y-57812857D01*
X61257144Y-57670000D01*
X61471429Y-57598571D01*
X61614286Y-57598571D01*
X61828572Y-57670000D01*
X61900001Y-57741429D01*
X65504286Y-49422857D02*
X65004286Y-49422857D01*
X65004286Y-50208571D02*
X65004286Y-48708571D01*
X65718572Y-48708571D01*
X66790000Y-49422857D02*
X67004286Y-49494286D01*
X67075714Y-49565714D01*
X67147143Y-49708571D01*
X67147143Y-49922857D01*
X67075714Y-50065714D01*
X67004286Y-50137143D01*
X66861428Y-50208571D01*
X66290000Y-50208571D01*
X66290000Y-48708571D01*
X66790000Y-48708571D01*
X66932857Y-48780000D01*
X67004286Y-48851429D01*
X67075714Y-48994286D01*
X67075714Y-49137143D01*
X67004286Y-49280000D01*
X66932857Y-49351429D01*
X66790000Y-49422857D01*
X66290000Y-49422857D01*
X62928572Y-49637143D02*
X64071429Y-49637143D01*
X61067143Y-60852857D02*
X61281429Y-60924286D01*
X61352857Y-60995714D01*
X61424286Y-61138571D01*
X61424286Y-61352857D01*
X61352857Y-61495714D01*
X61281429Y-61567143D01*
X61138571Y-61638571D01*
X60567143Y-61638571D01*
X60567143Y-60138571D01*
X61067143Y-60138571D01*
X61210000Y-60210000D01*
X61281429Y-60281429D01*
X61352857Y-60424286D01*
X61352857Y-60567143D01*
X61281429Y-60710000D01*
X61210000Y-60781429D01*
X61067143Y-60852857D01*
X60567143Y-60852857D01*
X58062857Y-61210000D02*
X58777143Y-61210000D01*
X57920000Y-61638571D02*
X58420000Y-60138571D01*
X58920000Y-61638571D01*
X55308572Y-61067143D02*
X56451429Y-61067143D01*
X52768572Y-61067143D02*
X53911429Y-61067143D01*
X53340000Y-61638571D02*
X53340000Y-60495714D01*
X79438572Y-75037143D02*
X80581429Y-75037143D01*
X79438572Y-72497143D02*
X80581429Y-72497143D01*
X80010000Y-73068571D02*
X80010000Y-71925714D01*
X79617143Y-69957143D02*
X79688572Y-69885714D01*
X79831429Y-69814286D01*
X80117143Y-69957143D01*
X80260000Y-69885714D01*
X80331429Y-69814286D01*
X88792857Y-67825714D02*
X88792857Y-67325714D01*
X89578571Y-67111428D02*
X89578571Y-67825714D01*
X88078571Y-67825714D01*
X88078571Y-67111428D01*
X89507143Y-66540000D02*
X89578571Y-66325714D01*
X89578571Y-65968571D01*
X89507143Y-65825714D01*
X89435714Y-65754285D01*
X89292857Y-65682857D01*
X89150000Y-65682857D01*
X89007143Y-65754285D01*
X88935714Y-65825714D01*
X88864286Y-65968571D01*
X88792857Y-66254285D01*
X88721429Y-66397143D01*
X88650000Y-66468571D01*
X88507143Y-66540000D01*
X88364286Y-66540000D01*
X88221429Y-66468571D01*
X88150000Y-66397143D01*
X88078571Y-66254285D01*
X88078571Y-65897143D01*
X88150000Y-65682857D01*
X89435714Y-64182857D02*
X89507143Y-64254286D01*
X89578571Y-64468572D01*
X89578571Y-64611429D01*
X89507143Y-64825714D01*
X89364286Y-64968572D01*
X89221429Y-65040000D01*
X88935714Y-65111429D01*
X88721429Y-65111429D01*
X88435714Y-65040000D01*
X88292857Y-64968572D01*
X88150000Y-64825714D01*
X88078571Y-64611429D01*
X88078571Y-64468572D01*
X88150000Y-64254286D01*
X88221429Y-64182857D01*
X92047143Y-67861428D02*
X92118571Y-67647142D01*
X92118571Y-67289999D01*
X92047143Y-67147142D01*
X91975714Y-67075713D01*
X91832857Y-67004285D01*
X91690000Y-67004285D01*
X91547143Y-67075713D01*
X91475714Y-67147142D01*
X91404286Y-67289999D01*
X91332857Y-67575713D01*
X91261429Y-67718571D01*
X91190000Y-67789999D01*
X91047143Y-67861428D01*
X90904286Y-67861428D01*
X90761429Y-67789999D01*
X90690000Y-67718571D01*
X90618571Y-67575713D01*
X90618571Y-67218571D01*
X90690000Y-67004285D01*
X92118571Y-65504285D02*
X91404286Y-66004285D01*
X92118571Y-66361428D02*
X90618571Y-66361428D01*
X90618571Y-65790000D01*
X90690000Y-65647142D01*
X90761429Y-65575714D01*
X90904286Y-65504285D01*
X91118571Y-65504285D01*
X91261429Y-65575714D01*
X91332857Y-65647142D01*
X91404286Y-65790000D01*
X91404286Y-66361428D01*
X90618571Y-65075714D02*
X92118571Y-64575714D01*
X90618571Y-64075714D01*
X94698572Y-75537143D02*
X94912858Y-75608571D01*
X95270001Y-75608571D01*
X95412858Y-75537143D01*
X95484287Y-75465714D01*
X95555715Y-75322857D01*
X95555715Y-75180000D01*
X95484287Y-75037143D01*
X95412858Y-74965714D01*
X95270001Y-74894286D01*
X94984287Y-74822857D01*
X94841429Y-74751429D01*
X94770001Y-74680000D01*
X94698572Y-74537143D01*
X94698572Y-74394286D01*
X94770001Y-74251429D01*
X94841429Y-74180000D01*
X94984287Y-74108571D01*
X95341429Y-74108571D01*
X95555715Y-74180000D01*
X96198572Y-75608571D02*
X96198572Y-74108571D01*
X96555715Y-74108571D01*
X96770000Y-74180000D01*
X96912858Y-74322857D01*
X96984286Y-74465714D01*
X97055715Y-74751429D01*
X97055715Y-74965714D01*
X96984286Y-75251429D01*
X96912858Y-75394286D01*
X96770000Y-75537143D01*
X96555715Y-75608571D01*
X96198572Y-75608571D01*
X97627143Y-75180000D02*
X98341429Y-75180000D01*
X97484286Y-75608571D02*
X97984286Y-74108571D01*
X98484286Y-75608571D01*
X94734286Y-72997143D02*
X94948572Y-73068571D01*
X95305715Y-73068571D01*
X95448572Y-72997143D01*
X95520001Y-72925714D01*
X95591429Y-72782857D01*
X95591429Y-72640000D01*
X95520001Y-72497143D01*
X95448572Y-72425714D01*
X95305715Y-72354286D01*
X95020001Y-72282857D01*
X94877143Y-72211429D01*
X94805715Y-72140000D01*
X94734286Y-71997143D01*
X94734286Y-71854286D01*
X94805715Y-71711429D01*
X94877143Y-71640000D01*
X95020001Y-71568571D01*
X95377143Y-71568571D01*
X95591429Y-71640000D01*
X97091429Y-72925714D02*
X97020000Y-72997143D01*
X96805714Y-73068571D01*
X96662857Y-73068571D01*
X96448572Y-72997143D01*
X96305714Y-72854286D01*
X96234286Y-72711429D01*
X96162857Y-72425714D01*
X96162857Y-72211429D01*
X96234286Y-71925714D01*
X96305714Y-71782857D01*
X96448572Y-71640000D01*
X96662857Y-71568571D01*
X96805714Y-71568571D01*
X97020000Y-71640000D01*
X97091429Y-71711429D01*
X98448572Y-73068571D02*
X97734286Y-73068571D01*
X97734286Y-71568571D01*
X95377143Y-69100000D02*
X95234286Y-69028571D01*
X95020000Y-69028571D01*
X94805715Y-69100000D01*
X94662857Y-69242857D01*
X94591429Y-69385714D01*
X94520000Y-69671429D01*
X94520000Y-69885714D01*
X94591429Y-70171429D01*
X94662857Y-70314286D01*
X94805715Y-70457143D01*
X95020000Y-70528571D01*
X95162857Y-70528571D01*
X95377143Y-70457143D01*
X95448572Y-70385714D01*
X95448572Y-69885714D01*
X95162857Y-69885714D01*
X96091429Y-70528571D02*
X96091429Y-69028571D01*
X96948572Y-70528571D01*
X96948572Y-69028571D01*
X97662858Y-70528571D02*
X97662858Y-69028571D01*
X98020001Y-69028571D01*
X98234286Y-69100000D01*
X98377144Y-69242857D01*
X98448572Y-69385714D01*
X98520001Y-69671429D01*
X98520001Y-69885714D01*
X98448572Y-70171429D01*
X98377144Y-70314286D01*
X98234286Y-70457143D01*
X98020001Y-70528571D01*
X97662858Y-70528571D01*
X94734286Y-66488571D02*
X95234286Y-67988571D01*
X95734286Y-66488571D01*
X96877143Y-67917143D02*
X96734286Y-67988571D01*
X96448572Y-67988571D01*
X96305714Y-67917143D01*
X96234286Y-67845714D01*
X96162857Y-67702857D01*
X96162857Y-67274286D01*
X96234286Y-67131429D01*
X96305714Y-67060000D01*
X96448572Y-66988571D01*
X96734286Y-66988571D01*
X96877143Y-67060000D01*
X98162857Y-67917143D02*
X98020000Y-67988571D01*
X97734286Y-67988571D01*
X97591428Y-67917143D01*
X97520000Y-67845714D01*
X97448571Y-67702857D01*
X97448571Y-67274286D01*
X97520000Y-67131429D01*
X97591428Y-67060000D01*
X97734286Y-66988571D01*
X98020000Y-66988571D01*
X98162857Y-67060000D01*
D12*
X55586000Y-53300000D02*
G75*
G03X55586000Y-53300000I-2286000J0D01*
G01*
X54610000Y-64830000D02*
X62290000Y-64830000D01*
X62290000Y-64830000D02*
X62290000Y-62170000D01*
X62290000Y-62170000D02*
X54610000Y-62170000D01*
X54610000Y-62170000D02*
X54610000Y-64830000D01*
X53340000Y-64830000D02*
X52010000Y-64830000D01*
X52010000Y-64830000D02*
X52010000Y-63500000D01*
X54610000Y-67370000D02*
X62290000Y-67370000D01*
X62290000Y-67370000D02*
X62290000Y-64710000D01*
X62290000Y-64710000D02*
X54610000Y-64710000D01*
X54610000Y-64710000D02*
X54610000Y-67370000D01*
X53340000Y-67370000D02*
X52010000Y-67370000D01*
X52010000Y-67370000D02*
X52010000Y-66040000D01*
X68580000Y-69910000D02*
X76260000Y-69910000D01*
X76260000Y-69910000D02*
X76260000Y-67250000D01*
X76260000Y-67250000D02*
X68580000Y-67250000D01*
X68580000Y-67250000D02*
X68580000Y-69910000D01*
X67310000Y-69910000D02*
X65980000Y-69910000D01*
X65980000Y-69910000D02*
X65980000Y-68580000D01*
X68580000Y-72450000D02*
X76260000Y-72450000D01*
X76260000Y-72450000D02*
X76260000Y-69790000D01*
X76260000Y-69790000D02*
X68580000Y-69790000D01*
X68580000Y-69790000D02*
X68580000Y-72450000D01*
X67310000Y-72450000D02*
X65980000Y-72450000D01*
X65980000Y-72450000D02*
X65980000Y-71120000D01*
X101540000Y-68580000D02*
X101540000Y-76260000D01*
X101540000Y-76260000D02*
X104200000Y-76260000D01*
X104200000Y-76260000D02*
X104200000Y-68580000D01*
X104200000Y-68580000D02*
X101540000Y-68580000D01*
X101540000Y-67310000D02*
X101540000Y-65980000D01*
X101540000Y-65980000D02*
X102870000Y-65980000D01*
X99000000Y-68580000D02*
X99000000Y-76260000D01*
X99000000Y-76260000D02*
X101660000Y-76260000D01*
X101660000Y-76260000D02*
X101660000Y-68580000D01*
X101660000Y-68580000D02*
X99000000Y-68580000D01*
X99000000Y-67310000D02*
X99000000Y-65980000D01*
X99000000Y-65980000D02*
X100330000Y-65980000D01*
X64770000Y-45660000D02*
X62170000Y-45660000D01*
X62170000Y-45660000D02*
X62170000Y-48320000D01*
X62170000Y-48320000D02*
X64770000Y-48320000D01*
X64770000Y-48320000D02*
X64770000Y-45660000D01*
X66040000Y-45660000D02*
X67370000Y-45660000D01*
X67370000Y-45660000D02*
X67370000Y-46990000D01*
X87570000Y-71120000D02*
X87570000Y-76260000D01*
X87570000Y-76260000D02*
X90230000Y-76260000D01*
X90230000Y-76260000D02*
X90230000Y-71120000D01*
X90230000Y-71120000D02*
X87570000Y-71120000D01*
X87570000Y-69850000D02*
X87570000Y-68520000D01*
X87570000Y-68520000D02*
X88900000Y-68520000D01*
X90110000Y-71120000D02*
X90110000Y-76260000D01*
X90110000Y-76260000D02*
X92770000Y-76260000D01*
X92770000Y-76260000D02*
X92770000Y-71120000D01*
X92770000Y-71120000D02*
X90110000Y-71120000D01*
X90110000Y-69850000D02*
X90110000Y-68520000D01*
X90110000Y-68520000D02*
X91440000Y-68520000D01*
X79340000Y-52950000D02*
X78140000Y-52950000D01*
X78140000Y-51190000D02*
X79340000Y-51190000D01*
X79340000Y-55490000D02*
X78140000Y-55490000D01*
X78140000Y-53730000D02*
X79340000Y-53730000D01*
D13*
X69850000Y-58420000D02*
X68580000Y-58420000D01*
X68580000Y-58420000D02*
X68580000Y-50800000D01*
X68580000Y-50800000D02*
X69850000Y-50800000D01*
X81280000Y-59690000D02*
X85090000Y-59690000D01*
X85090000Y-59690000D02*
X85090000Y-57150000D01*
X85090000Y-57150000D02*
X81280000Y-57150000D01*
X81280000Y-57150000D02*
X81280000Y-59690000D01*
X74930000Y-58420000D02*
X74930000Y-50800000D01*
X74930000Y-50800000D02*
X69850000Y-50800000D01*
X74930000Y-58420000D02*
X69850000Y-58420000D01*
X76200000Y-59690000D02*
X78740000Y-59690000D01*
X78740000Y-59690000D02*
X78740000Y-57150000D01*
X78740000Y-57150000D02*
X76200000Y-57150000D01*
X76200000Y-57150000D02*
X76200000Y-59690000D01*
X102870000Y-52070000D02*
X102870000Y-57150000D01*
X102870000Y-57150000D02*
X100330000Y-57150000D01*
X100330000Y-57150000D02*
X100330000Y-52070000D01*
X100330000Y-52070000D02*
X102870000Y-52070000D01*
X96520000Y-59690000D02*
X96520000Y-49530000D01*
X87630000Y-49530000D02*
X87630000Y-59690000D01*
X96520000Y-49530000D02*
X87630000Y-49530000D01*
X96520000Y-59690000D02*
X87630000Y-59690000D01*
X69850000Y-45720000D02*
X105410000Y-45720000D01*
X105410000Y-45720000D02*
X105410000Y-63500000D01*
X105410000Y-63500000D02*
X69850000Y-63500000D01*
X69850000Y-63500000D02*
X69850000Y-45720000D01*
D12*
X111486000Y-53300000D02*
G75*
G03X111486000Y-53300000I-2286000J0D01*
G01*
X55586000Y-72400000D02*
G75*
G03X55586000Y-72400000I-2286000J0D01*
G01*
X111486000Y-72400000D02*
G75*
G03X111486000Y-72400000I-2286000J0D01*
G01*
X81220000Y-71120000D02*
X81220000Y-76260000D01*
X81220000Y-76260000D02*
X83880000Y-76260000D01*
X83880000Y-76260000D02*
X83880000Y-71120000D01*
X83880000Y-71120000D02*
X81220000Y-71120000D01*
X81220000Y-69850000D02*
X81220000Y-68520000D01*
X81220000Y-68520000D02*
X82550000Y-68520000D01*
X83760000Y-71120000D02*
X83760000Y-76260000D01*
X83760000Y-76260000D02*
X86420000Y-76260000D01*
X86420000Y-76260000D02*
X86420000Y-71120000D01*
X86420000Y-71120000D02*
X83760000Y-71120000D01*
X83760000Y-69850000D02*
X83760000Y-68520000D01*
X83760000Y-68520000D02*
X85090000Y-68520000D01*
D13*
X50462381Y-63833333D02*
X51176667Y-63833333D01*
X51319524Y-63880953D01*
X51414762Y-63976191D01*
X51462381Y-64119048D01*
X51462381Y-64214286D01*
X51462381Y-62833333D02*
X51462381Y-63404762D01*
X51462381Y-63119048D02*
X50462381Y-63119048D01*
X50605238Y-63214286D01*
X50700476Y-63309524D01*
X50748095Y-63404762D01*
X50462381Y-66373333D02*
X51176667Y-66373333D01*
X51319524Y-66420953D01*
X51414762Y-66516191D01*
X51462381Y-66659048D01*
X51462381Y-66754286D01*
X50557619Y-65944762D02*
X50510000Y-65897143D01*
X50462381Y-65801905D01*
X50462381Y-65563809D01*
X50510000Y-65468571D01*
X50557619Y-65420952D01*
X50652857Y-65373333D01*
X50748095Y-65373333D01*
X50890952Y-65420952D01*
X51462381Y-65992381D01*
X51462381Y-65373333D01*
X76922381Y-68913333D02*
X77636667Y-68913333D01*
X77779524Y-68960953D01*
X77874762Y-69056191D01*
X77922381Y-69199048D01*
X77922381Y-69294286D01*
X76922381Y-68532381D02*
X76922381Y-67913333D01*
X77303333Y-68246667D01*
X77303333Y-68103809D01*
X77350952Y-68008571D01*
X77398571Y-67960952D01*
X77493810Y-67913333D01*
X77731905Y-67913333D01*
X77827143Y-67960952D01*
X77874762Y-68008571D01*
X77922381Y-68103809D01*
X77922381Y-68389524D01*
X77874762Y-68484762D01*
X77827143Y-68532381D01*
X76922381Y-71453333D02*
X77636667Y-71453333D01*
X77779524Y-71500953D01*
X77874762Y-71596191D01*
X77922381Y-71739048D01*
X77922381Y-71834286D01*
X77255714Y-70548571D02*
X77922381Y-70548571D01*
X76874762Y-70786667D02*
X77589048Y-71024762D01*
X77589048Y-70405714D01*
X102536667Y-64432381D02*
X102536667Y-65146667D01*
X102489047Y-65289524D01*
X102393809Y-65384762D01*
X102250952Y-65432381D01*
X102155714Y-65432381D01*
X103489048Y-64432381D02*
X103012857Y-64432381D01*
X102965238Y-64908571D01*
X103012857Y-64860952D01*
X103108095Y-64813333D01*
X103346191Y-64813333D01*
X103441429Y-64860952D01*
X103489048Y-64908571D01*
X103536667Y-65003810D01*
X103536667Y-65241905D01*
X103489048Y-65337143D01*
X103441429Y-65384762D01*
X103346191Y-65432381D01*
X103108095Y-65432381D01*
X103012857Y-65384762D01*
X102965238Y-65337143D01*
X99996667Y-64432381D02*
X99996667Y-65146667D01*
X99949047Y-65289524D01*
X99853809Y-65384762D01*
X99710952Y-65432381D01*
X99615714Y-65432381D01*
X100901429Y-64432381D02*
X100710952Y-64432381D01*
X100615714Y-64480000D01*
X100568095Y-64527619D01*
X100472857Y-64670476D01*
X100425238Y-64860952D01*
X100425238Y-65241905D01*
X100472857Y-65337143D01*
X100520476Y-65384762D01*
X100615714Y-65432381D01*
X100806191Y-65432381D01*
X100901429Y-65384762D01*
X100949048Y-65337143D01*
X100996667Y-65241905D01*
X100996667Y-65003810D01*
X100949048Y-64908571D01*
X100901429Y-64860952D01*
X100806191Y-64813333D01*
X100615714Y-64813333D01*
X100520476Y-64860952D01*
X100472857Y-64908571D01*
X100425238Y-65003810D01*
X67822381Y-47323333D02*
X68536667Y-47323333D01*
X68679524Y-47370953D01*
X68774762Y-47466191D01*
X68822381Y-47609048D01*
X68822381Y-47704286D01*
X67822381Y-46942381D02*
X67822381Y-46275714D01*
X68822381Y-46704286D01*
X82383334Y-52522381D02*
X82050000Y-52046190D01*
X81811905Y-52522381D02*
X81811905Y-51522381D01*
X82192858Y-51522381D01*
X82288096Y-51570000D01*
X82335715Y-51617619D01*
X82383334Y-51712857D01*
X82383334Y-51855714D01*
X82335715Y-51950952D01*
X82288096Y-51998571D01*
X82192858Y-52046190D01*
X81811905Y-52046190D01*
X83335715Y-52522381D02*
X82764286Y-52522381D01*
X83050000Y-52522381D02*
X83050000Y-51522381D01*
X82954762Y-51665238D01*
X82859524Y-51760476D01*
X82764286Y-51808095D01*
X82383334Y-55062381D02*
X82050000Y-54586190D01*
X81811905Y-55062381D02*
X81811905Y-54062381D01*
X82192858Y-54062381D01*
X82288096Y-54110000D01*
X82335715Y-54157619D01*
X82383334Y-54252857D01*
X82383334Y-54395714D01*
X82335715Y-54490952D01*
X82288096Y-54538571D01*
X82192858Y-54586190D01*
X81811905Y-54586190D01*
X82764286Y-54157619D02*
X82811905Y-54110000D01*
X82907143Y-54062381D01*
X83145239Y-54062381D01*
X83240477Y-54110000D01*
X83288096Y-54157619D01*
X83335715Y-54252857D01*
X83335715Y-54348095D01*
X83288096Y-54490952D01*
X82716667Y-55062381D01*
X83335715Y-55062381D01*
X70572381Y-55371905D02*
X71381905Y-55371905D01*
X71477143Y-55324286D01*
X71524762Y-55276667D01*
X71572381Y-55181429D01*
X71572381Y-54990952D01*
X71524762Y-54895714D01*
X71477143Y-54848095D01*
X71381905Y-54800476D01*
X70572381Y-54800476D01*
X71572381Y-53800476D02*
X71572381Y-54371905D01*
X71572381Y-54086191D02*
X70572381Y-54086191D01*
X70715238Y-54181429D01*
X70810476Y-54276667D01*
X70858095Y-54371905D01*
M02*
