G04 #@! TF.FileFunction,Copper,L2,Bot,Signal*
%FSLAX46Y46*%
G04 Gerber Fmt 4.6, Leading zero omitted, Abs format (unit mm)*
G04 Created by KiCad (PCBNEW 4.0.6) date Wednesday, September 13, 2017 'PMt' 06:10:32 PM*
%MOMM*%
%LPD*%
G01*
G04 APERTURE LIST*
%ADD10C,0.100000*%
%ADD11C,4.064000*%
%ADD12R,1.700000X1.700000*%
%ADD13O,1.700000X1.700000*%
%ADD14C,1.600000*%
%ADD15R,1.600000X1.600000*%
%ADD16C,0.700000*%
%ADD17C,0.250000*%
%ADD18C,0.254000*%
G04 APERTURE END LIST*
D10*
D11*
X53300000Y-53300000D03*
D12*
X53340000Y-63500000D03*
D13*
X55880000Y-63500000D03*
X58420000Y-63500000D03*
X60960000Y-63500000D03*
D12*
X53340000Y-66040000D03*
D13*
X55880000Y-66040000D03*
X58420000Y-66040000D03*
X60960000Y-66040000D03*
D12*
X67310000Y-68580000D03*
D13*
X69850000Y-68580000D03*
X72390000Y-68580000D03*
X74930000Y-68580000D03*
D12*
X67310000Y-71120000D03*
D13*
X69850000Y-71120000D03*
X72390000Y-71120000D03*
X74930000Y-71120000D03*
D12*
X102870000Y-67310000D03*
D13*
X102870000Y-69850000D03*
X102870000Y-72390000D03*
X102870000Y-74930000D03*
D12*
X100330000Y-67310000D03*
D13*
X100330000Y-69850000D03*
X100330000Y-72390000D03*
X100330000Y-74930000D03*
D12*
X66040000Y-46990000D03*
D13*
X63500000Y-46990000D03*
D12*
X88900000Y-69850000D03*
D13*
X88900000Y-72390000D03*
X88900000Y-74930000D03*
D12*
X91440000Y-69850000D03*
D13*
X91440000Y-72390000D03*
X91440000Y-74930000D03*
D14*
X104140000Y-54610000D03*
X104140000Y-52070000D03*
X104140000Y-49530000D03*
X104140000Y-46990000D03*
X104140000Y-57150000D03*
X104140000Y-59690000D03*
X104140000Y-62230000D03*
X101600000Y-46990000D03*
X99060000Y-46990000D03*
X96520000Y-46990000D03*
X93980000Y-46990000D03*
X91440000Y-46990000D03*
X88900000Y-46990000D03*
X86360000Y-46990000D03*
X83820000Y-46990000D03*
X81280000Y-46990000D03*
X78740000Y-46990000D03*
X76200000Y-46990000D03*
X73660000Y-46990000D03*
X71120000Y-46990000D03*
X73660000Y-49530000D03*
X78740000Y-49530000D03*
X81280000Y-49530000D03*
X83820000Y-49530000D03*
X101600000Y-62230000D03*
X99060000Y-62230000D03*
X96520000Y-62230000D03*
X93980000Y-62230000D03*
X91440000Y-62230000D03*
X88900000Y-62230000D03*
X86360000Y-62230000D03*
X83820000Y-62230000D03*
X81280000Y-62230000D03*
X78740000Y-62230000D03*
X76200000Y-62230000D03*
X73660000Y-62230000D03*
D15*
X71120000Y-62230000D03*
D14*
X86360000Y-54610000D03*
X88900000Y-54610000D03*
X91440000Y-54610000D03*
X93980000Y-54610000D03*
X96520000Y-54610000D03*
X99060000Y-54610000D03*
X101600000Y-54610000D03*
X101600000Y-52070000D03*
X99060000Y-52070000D03*
X96520000Y-52070000D03*
X93980000Y-52070000D03*
X91440000Y-52070000D03*
X88900000Y-52070000D03*
X86360000Y-52070000D03*
D11*
X109200000Y-53300000D03*
X53300000Y-72400000D03*
X109200000Y-72400000D03*
D12*
X82550000Y-69850000D03*
D13*
X82550000Y-72390000D03*
X82550000Y-74930000D03*
D12*
X85090000Y-69850000D03*
D13*
X85090000Y-72390000D03*
X85090000Y-74930000D03*
D16*
X80010000Y-74930000D02*
X81280000Y-74930000D01*
X81280000Y-74930000D02*
X82550000Y-74930000D01*
X82550000Y-74930000D02*
X92710000Y-74930000D01*
D17*
X100330000Y-72390000D02*
X102870000Y-72390000D01*
X88900000Y-46990000D02*
X88900000Y-49530000D01*
X90170000Y-62865000D02*
X99695000Y-72390000D01*
X90170000Y-50800000D02*
X90170000Y-62865000D01*
X88900000Y-49530000D02*
X90170000Y-50800000D01*
X99695000Y-72390000D02*
X100330000Y-72390000D01*
X102870000Y-74930000D02*
X100330000Y-74930000D01*
X91440000Y-46990000D02*
X95250000Y-50800000D01*
X104140000Y-73660000D02*
X102870000Y-74930000D01*
X104140000Y-71755000D02*
X104140000Y-73660000D01*
X103505000Y-71120000D02*
X104140000Y-71755000D01*
X99061398Y-71120000D02*
X103505000Y-71120000D01*
X95250000Y-67308602D02*
X99061398Y-71120000D01*
X95250000Y-50800000D02*
X95250000Y-67308602D01*
X88900000Y-69850000D02*
X81280000Y-62230000D01*
D16*
X88900000Y-72390000D02*
X91440000Y-72390000D01*
D17*
X83820000Y-62230000D02*
X91440000Y-69850000D01*
X58420000Y-63500000D02*
X69850000Y-52070000D01*
X73660000Y-52070000D02*
X78740000Y-46990000D01*
X69850000Y-52070000D02*
X73660000Y-52070000D01*
X58420000Y-66040000D02*
X58420000Y-65405000D01*
X58420000Y-65405000D02*
X59055000Y-64770000D01*
X59055000Y-64770000D02*
X62230000Y-64770000D01*
X62230000Y-64770000D02*
X75565000Y-51435000D01*
X75565000Y-51435000D02*
X78740000Y-51435000D01*
X78740000Y-51435000D02*
X80010000Y-50165000D01*
X80010000Y-50165000D02*
X80010000Y-48260000D01*
X80010000Y-48260000D02*
X81280000Y-46990000D01*
X72390000Y-68580000D02*
X72390000Y-66040000D01*
X82550000Y-48260000D02*
X83820000Y-46990000D01*
X82550000Y-50800000D02*
X82550000Y-48260000D01*
X74930000Y-58420000D02*
X82550000Y-50800000D01*
X74930000Y-63500000D02*
X74930000Y-58420000D01*
X72390000Y-66040000D02*
X74930000Y-63500000D01*
X72390000Y-71120000D02*
X73660000Y-69850000D01*
X86360000Y-48895000D02*
X86360000Y-46990000D01*
X77470000Y-57785000D02*
X86360000Y-48895000D01*
X77470000Y-63500000D02*
X77470000Y-57785000D01*
X73660000Y-67310000D02*
X77470000Y-63500000D01*
X73660000Y-69850000D02*
X73660000Y-67310000D01*
D18*
G36*
X62304817Y-46108642D02*
X62058514Y-46633108D01*
X62179181Y-46863000D01*
X63373000Y-46863000D01*
X63373000Y-46843000D01*
X63627000Y-46843000D01*
X63627000Y-46863000D01*
X63647000Y-46863000D01*
X63647000Y-47117000D01*
X63627000Y-47117000D01*
X63627000Y-48310155D01*
X63856890Y-48431476D01*
X64266924Y-48261645D01*
X64569937Y-47985499D01*
X64586838Y-48075317D01*
X64725910Y-48291441D01*
X64938110Y-48436431D01*
X65190000Y-48487440D01*
X66890000Y-48487440D01*
X67125317Y-48443162D01*
X67341441Y-48304090D01*
X67486431Y-48091890D01*
X67537440Y-47840000D01*
X67537440Y-46140000D01*
X67493162Y-45904683D01*
X67422583Y-45795000D01*
X70285918Y-45795000D01*
X69904176Y-46176077D01*
X69685250Y-46703309D01*
X69684752Y-47274187D01*
X69902757Y-47801800D01*
X70306077Y-48205824D01*
X70833309Y-48424750D01*
X71404187Y-48425248D01*
X71931800Y-48207243D01*
X72335824Y-47803923D01*
X72389862Y-47673785D01*
X72442757Y-47801800D01*
X72846077Y-48205824D01*
X72976215Y-48259862D01*
X72848200Y-48312757D01*
X72444176Y-48716077D01*
X72225250Y-49243309D01*
X72224752Y-49814187D01*
X72442757Y-50341800D01*
X72846077Y-50745824D01*
X73373309Y-50964750D01*
X73690172Y-50965026D01*
X73345198Y-51310000D01*
X69850000Y-51310000D01*
X69559161Y-51367852D01*
X69312599Y-51532599D01*
X58786408Y-62058790D01*
X58420000Y-61985907D01*
X57851715Y-62098946D01*
X57369946Y-62420853D01*
X57142298Y-62761553D01*
X57075183Y-62618642D01*
X56646924Y-62228355D01*
X56236890Y-62058524D01*
X56007000Y-62179845D01*
X56007000Y-63373000D01*
X56027000Y-63373000D01*
X56027000Y-63627000D01*
X56007000Y-63627000D01*
X56007000Y-65913000D01*
X56027000Y-65913000D01*
X56027000Y-66167000D01*
X56007000Y-66167000D01*
X56007000Y-67360155D01*
X56236890Y-67481476D01*
X56646924Y-67311645D01*
X57075183Y-66921358D01*
X57142298Y-66778447D01*
X57369946Y-67119147D01*
X57851715Y-67441054D01*
X58420000Y-67554093D01*
X58988285Y-67441054D01*
X59470054Y-67119147D01*
X59690000Y-66789974D01*
X59909946Y-67119147D01*
X60391715Y-67441054D01*
X60960000Y-67554093D01*
X61528285Y-67441054D01*
X62010054Y-67119147D01*
X62331961Y-66637378D01*
X62445000Y-66069093D01*
X62445000Y-66010907D01*
X62344799Y-65507165D01*
X62520839Y-65472148D01*
X62767401Y-65307401D01*
X65559052Y-62515750D01*
X69685000Y-62515750D01*
X69685000Y-63156310D01*
X69781673Y-63389699D01*
X69960302Y-63568327D01*
X70193691Y-63665000D01*
X70834250Y-63665000D01*
X70993000Y-63506250D01*
X70993000Y-62357000D01*
X69843750Y-62357000D01*
X69685000Y-62515750D01*
X65559052Y-62515750D01*
X66771112Y-61303690D01*
X69685000Y-61303690D01*
X69685000Y-61944250D01*
X69843750Y-62103000D01*
X70993000Y-62103000D01*
X70993000Y-60953750D01*
X70834250Y-60795000D01*
X70193691Y-60795000D01*
X69960302Y-60891673D01*
X69781673Y-61070301D01*
X69685000Y-61303690D01*
X66771112Y-61303690D01*
X75879802Y-52195000D01*
X78740000Y-52195000D01*
X79030839Y-52137148D01*
X79277401Y-51972401D01*
X80492858Y-50756944D01*
X80993309Y-50964750D01*
X81310172Y-50965026D01*
X74392599Y-57882599D01*
X74227852Y-58129161D01*
X74170000Y-58420000D01*
X74170000Y-60887976D01*
X73946691Y-60795250D01*
X73375813Y-60794752D01*
X72848200Y-61012757D01*
X72555000Y-61305446D01*
X72555000Y-61303690D01*
X72458327Y-61070301D01*
X72279698Y-60891673D01*
X72046309Y-60795000D01*
X71405750Y-60795000D01*
X71247000Y-60953750D01*
X71247000Y-62103000D01*
X71267000Y-62103000D01*
X71267000Y-62357000D01*
X71247000Y-62357000D01*
X71247000Y-63506250D01*
X71405750Y-63665000D01*
X72046309Y-63665000D01*
X72279698Y-63568327D01*
X72458327Y-63389699D01*
X72555000Y-63156310D01*
X72555000Y-63154239D01*
X72846077Y-63445824D01*
X73373309Y-63664750D01*
X73690172Y-63665026D01*
X71852599Y-65502599D01*
X71687852Y-65749161D01*
X71630000Y-66040000D01*
X71630000Y-67307046D01*
X71339946Y-67500853D01*
X71112298Y-67841553D01*
X71045183Y-67698642D01*
X70616924Y-67308355D01*
X70206890Y-67138524D01*
X69977000Y-67259845D01*
X69977000Y-68453000D01*
X69997000Y-68453000D01*
X69997000Y-68707000D01*
X69977000Y-68707000D01*
X69977000Y-70993000D01*
X69997000Y-70993000D01*
X69997000Y-71247000D01*
X69977000Y-71247000D01*
X69977000Y-72440155D01*
X70206890Y-72561476D01*
X70616924Y-72391645D01*
X71045183Y-72001358D01*
X71112298Y-71858447D01*
X71339946Y-72199147D01*
X71821715Y-72521054D01*
X72390000Y-72634093D01*
X72958285Y-72521054D01*
X73440054Y-72199147D01*
X73660000Y-71869974D01*
X73879946Y-72199147D01*
X74361715Y-72521054D01*
X74930000Y-72634093D01*
X75498285Y-72521054D01*
X75694421Y-72390000D01*
X81035907Y-72390000D01*
X81148946Y-72958285D01*
X81470853Y-73440054D01*
X81811553Y-73667702D01*
X81668642Y-73734817D01*
X81278355Y-74163076D01*
X81108524Y-74573110D01*
X81229845Y-74803000D01*
X82423000Y-74803000D01*
X82423000Y-74783000D01*
X82677000Y-74783000D01*
X82677000Y-74803000D01*
X84963000Y-74803000D01*
X84963000Y-74783000D01*
X85217000Y-74783000D01*
X85217000Y-74803000D01*
X86410155Y-74803000D01*
X86531476Y-74573110D01*
X86361645Y-74163076D01*
X85971358Y-73734817D01*
X85828447Y-73667702D01*
X86169147Y-73440054D01*
X86491054Y-72958285D01*
X86604093Y-72390000D01*
X86491054Y-71821715D01*
X86169147Y-71339946D01*
X86127548Y-71312150D01*
X86175317Y-71303162D01*
X86391441Y-71164090D01*
X86536431Y-70951890D01*
X86587440Y-70700000D01*
X86587440Y-69000000D01*
X86543162Y-68764683D01*
X86404090Y-68548559D01*
X86191890Y-68403569D01*
X85940000Y-68352560D01*
X84240000Y-68352560D01*
X84004683Y-68396838D01*
X83817923Y-68517015D01*
X83651890Y-68403569D01*
X83400000Y-68352560D01*
X81700000Y-68352560D01*
X81464683Y-68396838D01*
X81248559Y-68535910D01*
X81103569Y-68748110D01*
X81052560Y-69000000D01*
X81052560Y-70700000D01*
X81096838Y-70935317D01*
X81235910Y-71151441D01*
X81448110Y-71296431D01*
X81515541Y-71310086D01*
X81470853Y-71339946D01*
X81148946Y-71821715D01*
X81035907Y-72390000D01*
X75694421Y-72390000D01*
X75980054Y-72199147D01*
X76301961Y-71717378D01*
X76415000Y-71149093D01*
X76415000Y-71090907D01*
X76301961Y-70522622D01*
X75980054Y-70040853D01*
X75694422Y-69850000D01*
X75980054Y-69659147D01*
X76301961Y-69177378D01*
X76415000Y-68609093D01*
X76415000Y-68550907D01*
X76301961Y-67982622D01*
X75980054Y-67500853D01*
X75498285Y-67178946D01*
X74970783Y-67074019D01*
X78007401Y-64037401D01*
X78172148Y-63790839D01*
X78216766Y-63566529D01*
X78453309Y-63664750D01*
X79024187Y-63665248D01*
X79551800Y-63447243D01*
X79955824Y-63043923D01*
X80009862Y-62913785D01*
X80062757Y-63041800D01*
X80466077Y-63445824D01*
X80993309Y-63664750D01*
X81564187Y-63665248D01*
X81618149Y-63642951D01*
X87402560Y-69427362D01*
X87402560Y-70700000D01*
X87446838Y-70935317D01*
X87585910Y-71151441D01*
X87798110Y-71296431D01*
X87865541Y-71310086D01*
X87820853Y-71339946D01*
X87498946Y-71821715D01*
X87385907Y-72390000D01*
X87498946Y-72958285D01*
X87820853Y-73440054D01*
X88161553Y-73667702D01*
X88018642Y-73734817D01*
X87628355Y-74163076D01*
X87458524Y-74573110D01*
X87579845Y-74803000D01*
X88773000Y-74803000D01*
X88773000Y-74783000D01*
X89027000Y-74783000D01*
X89027000Y-74803000D01*
X91313000Y-74803000D01*
X91313000Y-74783000D01*
X91567000Y-74783000D01*
X91567000Y-74803000D01*
X92760155Y-74803000D01*
X92881476Y-74573110D01*
X92711645Y-74163076D01*
X92321358Y-73734817D01*
X92178447Y-73667702D01*
X92519147Y-73440054D01*
X92841054Y-72958285D01*
X92954093Y-72390000D01*
X92841054Y-71821715D01*
X92519147Y-71339946D01*
X92477548Y-71312150D01*
X92525317Y-71303162D01*
X92741441Y-71164090D01*
X92886431Y-70951890D01*
X92937440Y-70700000D01*
X92937440Y-69000000D01*
X92893162Y-68764683D01*
X92754090Y-68548559D01*
X92541890Y-68403569D01*
X92290000Y-68352560D01*
X91017362Y-68352560D01*
X86329776Y-63664974D01*
X86644187Y-63665248D01*
X87171800Y-63447243D01*
X87575824Y-63043923D01*
X87629862Y-62913785D01*
X87682757Y-63041800D01*
X88086077Y-63445824D01*
X88613309Y-63664750D01*
X89184187Y-63665248D01*
X89687487Y-63457289D01*
X98864502Y-72634304D01*
X98928946Y-72958285D01*
X99250853Y-73440054D01*
X99580026Y-73660000D01*
X99250853Y-73879946D01*
X98928946Y-74361715D01*
X98815907Y-74930000D01*
X98928946Y-75498285D01*
X99250853Y-75980054D01*
X99467781Y-76125000D01*
X92321525Y-76125000D01*
X92711645Y-75696924D01*
X92881476Y-75286890D01*
X92760155Y-75057000D01*
X91567000Y-75057000D01*
X91567000Y-75077000D01*
X91313000Y-75077000D01*
X91313000Y-75057000D01*
X89027000Y-75057000D01*
X89027000Y-75077000D01*
X88773000Y-75077000D01*
X88773000Y-75057000D01*
X87579845Y-75057000D01*
X87458524Y-75286890D01*
X87628355Y-75696924D01*
X88018475Y-76125000D01*
X85971525Y-76125000D01*
X86361645Y-75696924D01*
X86531476Y-75286890D01*
X86410155Y-75057000D01*
X85217000Y-75057000D01*
X85217000Y-75077000D01*
X84963000Y-75077000D01*
X84963000Y-75057000D01*
X82677000Y-75057000D01*
X82677000Y-75077000D01*
X82423000Y-75077000D01*
X82423000Y-75057000D01*
X81229845Y-75057000D01*
X81108524Y-75286890D01*
X81278355Y-75696924D01*
X81668475Y-76125000D01*
X50875000Y-76125000D01*
X50875000Y-73514975D01*
X51037709Y-73908761D01*
X51787293Y-74659655D01*
X52767173Y-75066536D01*
X53828172Y-75067462D01*
X54808761Y-74662291D01*
X55559655Y-73912707D01*
X55966536Y-72932827D01*
X55967462Y-71871828D01*
X55562291Y-70891239D01*
X54812707Y-70140345D01*
X53832827Y-69733464D01*
X52771828Y-69732538D01*
X51791239Y-70137709D01*
X51040345Y-70887293D01*
X50875000Y-71285489D01*
X50875000Y-67730000D01*
X65812560Y-67730000D01*
X65812560Y-69430000D01*
X65856838Y-69665317D01*
X65977015Y-69852077D01*
X65863569Y-70018110D01*
X65812560Y-70270000D01*
X65812560Y-71970000D01*
X65856838Y-72205317D01*
X65995910Y-72421441D01*
X66208110Y-72566431D01*
X66460000Y-72617440D01*
X68160000Y-72617440D01*
X68395317Y-72573162D01*
X68611441Y-72434090D01*
X68756431Y-72221890D01*
X68778301Y-72113893D01*
X69083076Y-72391645D01*
X69493110Y-72561476D01*
X69723000Y-72440155D01*
X69723000Y-71247000D01*
X69703000Y-71247000D01*
X69703000Y-70993000D01*
X69723000Y-70993000D01*
X69723000Y-68707000D01*
X69703000Y-68707000D01*
X69703000Y-68453000D01*
X69723000Y-68453000D01*
X69723000Y-67259845D01*
X69493110Y-67138524D01*
X69083076Y-67308355D01*
X68780063Y-67584501D01*
X68763162Y-67494683D01*
X68624090Y-67278559D01*
X68411890Y-67133569D01*
X68160000Y-67082560D01*
X66460000Y-67082560D01*
X66224683Y-67126838D01*
X66008559Y-67265910D01*
X65863569Y-67478110D01*
X65812560Y-67730000D01*
X50875000Y-67730000D01*
X50875000Y-62650000D01*
X51842560Y-62650000D01*
X51842560Y-64350000D01*
X51886838Y-64585317D01*
X52007015Y-64772077D01*
X51893569Y-64938110D01*
X51842560Y-65190000D01*
X51842560Y-66890000D01*
X51886838Y-67125317D01*
X52025910Y-67341441D01*
X52238110Y-67486431D01*
X52490000Y-67537440D01*
X54190000Y-67537440D01*
X54425317Y-67493162D01*
X54641441Y-67354090D01*
X54786431Y-67141890D01*
X54808301Y-67033893D01*
X55113076Y-67311645D01*
X55523110Y-67481476D01*
X55753000Y-67360155D01*
X55753000Y-66167000D01*
X55733000Y-66167000D01*
X55733000Y-65913000D01*
X55753000Y-65913000D01*
X55753000Y-63627000D01*
X55733000Y-63627000D01*
X55733000Y-63373000D01*
X55753000Y-63373000D01*
X55753000Y-62179845D01*
X55523110Y-62058524D01*
X55113076Y-62228355D01*
X54810063Y-62504501D01*
X54793162Y-62414683D01*
X54654090Y-62198559D01*
X54441890Y-62053569D01*
X54190000Y-62002560D01*
X52490000Y-62002560D01*
X52254683Y-62046838D01*
X52038559Y-62185910D01*
X51893569Y-62398110D01*
X51842560Y-62650000D01*
X50875000Y-62650000D01*
X50875000Y-54414975D01*
X51037709Y-54808761D01*
X51787293Y-55559655D01*
X52767173Y-55966536D01*
X53828172Y-55967462D01*
X54808761Y-55562291D01*
X55559655Y-54812707D01*
X55966536Y-53832827D01*
X55967462Y-52771828D01*
X55562291Y-51791239D01*
X54812707Y-51040345D01*
X53832827Y-50633464D01*
X52771828Y-50632538D01*
X51791239Y-51037709D01*
X51040345Y-51787293D01*
X50875000Y-52185489D01*
X50875000Y-47346892D01*
X62058514Y-47346892D01*
X62304817Y-47871358D01*
X62733076Y-48261645D01*
X63143110Y-48431476D01*
X63373000Y-48310155D01*
X63373000Y-47117000D01*
X62179181Y-47117000D01*
X62058514Y-47346892D01*
X50875000Y-47346892D01*
X50875000Y-45795000D01*
X62648974Y-45795000D01*
X62304817Y-46108642D01*
X62304817Y-46108642D01*
G37*
X62304817Y-46108642D02*
X62058514Y-46633108D01*
X62179181Y-46863000D01*
X63373000Y-46863000D01*
X63373000Y-46843000D01*
X63627000Y-46843000D01*
X63627000Y-46863000D01*
X63647000Y-46863000D01*
X63647000Y-47117000D01*
X63627000Y-47117000D01*
X63627000Y-48310155D01*
X63856890Y-48431476D01*
X64266924Y-48261645D01*
X64569937Y-47985499D01*
X64586838Y-48075317D01*
X64725910Y-48291441D01*
X64938110Y-48436431D01*
X65190000Y-48487440D01*
X66890000Y-48487440D01*
X67125317Y-48443162D01*
X67341441Y-48304090D01*
X67486431Y-48091890D01*
X67537440Y-47840000D01*
X67537440Y-46140000D01*
X67493162Y-45904683D01*
X67422583Y-45795000D01*
X70285918Y-45795000D01*
X69904176Y-46176077D01*
X69685250Y-46703309D01*
X69684752Y-47274187D01*
X69902757Y-47801800D01*
X70306077Y-48205824D01*
X70833309Y-48424750D01*
X71404187Y-48425248D01*
X71931800Y-48207243D01*
X72335824Y-47803923D01*
X72389862Y-47673785D01*
X72442757Y-47801800D01*
X72846077Y-48205824D01*
X72976215Y-48259862D01*
X72848200Y-48312757D01*
X72444176Y-48716077D01*
X72225250Y-49243309D01*
X72224752Y-49814187D01*
X72442757Y-50341800D01*
X72846077Y-50745824D01*
X73373309Y-50964750D01*
X73690172Y-50965026D01*
X73345198Y-51310000D01*
X69850000Y-51310000D01*
X69559161Y-51367852D01*
X69312599Y-51532599D01*
X58786408Y-62058790D01*
X58420000Y-61985907D01*
X57851715Y-62098946D01*
X57369946Y-62420853D01*
X57142298Y-62761553D01*
X57075183Y-62618642D01*
X56646924Y-62228355D01*
X56236890Y-62058524D01*
X56007000Y-62179845D01*
X56007000Y-63373000D01*
X56027000Y-63373000D01*
X56027000Y-63627000D01*
X56007000Y-63627000D01*
X56007000Y-65913000D01*
X56027000Y-65913000D01*
X56027000Y-66167000D01*
X56007000Y-66167000D01*
X56007000Y-67360155D01*
X56236890Y-67481476D01*
X56646924Y-67311645D01*
X57075183Y-66921358D01*
X57142298Y-66778447D01*
X57369946Y-67119147D01*
X57851715Y-67441054D01*
X58420000Y-67554093D01*
X58988285Y-67441054D01*
X59470054Y-67119147D01*
X59690000Y-66789974D01*
X59909946Y-67119147D01*
X60391715Y-67441054D01*
X60960000Y-67554093D01*
X61528285Y-67441054D01*
X62010054Y-67119147D01*
X62331961Y-66637378D01*
X62445000Y-66069093D01*
X62445000Y-66010907D01*
X62344799Y-65507165D01*
X62520839Y-65472148D01*
X62767401Y-65307401D01*
X65559052Y-62515750D01*
X69685000Y-62515750D01*
X69685000Y-63156310D01*
X69781673Y-63389699D01*
X69960302Y-63568327D01*
X70193691Y-63665000D01*
X70834250Y-63665000D01*
X70993000Y-63506250D01*
X70993000Y-62357000D01*
X69843750Y-62357000D01*
X69685000Y-62515750D01*
X65559052Y-62515750D01*
X66771112Y-61303690D01*
X69685000Y-61303690D01*
X69685000Y-61944250D01*
X69843750Y-62103000D01*
X70993000Y-62103000D01*
X70993000Y-60953750D01*
X70834250Y-60795000D01*
X70193691Y-60795000D01*
X69960302Y-60891673D01*
X69781673Y-61070301D01*
X69685000Y-61303690D01*
X66771112Y-61303690D01*
X75879802Y-52195000D01*
X78740000Y-52195000D01*
X79030839Y-52137148D01*
X79277401Y-51972401D01*
X80492858Y-50756944D01*
X80993309Y-50964750D01*
X81310172Y-50965026D01*
X74392599Y-57882599D01*
X74227852Y-58129161D01*
X74170000Y-58420000D01*
X74170000Y-60887976D01*
X73946691Y-60795250D01*
X73375813Y-60794752D01*
X72848200Y-61012757D01*
X72555000Y-61305446D01*
X72555000Y-61303690D01*
X72458327Y-61070301D01*
X72279698Y-60891673D01*
X72046309Y-60795000D01*
X71405750Y-60795000D01*
X71247000Y-60953750D01*
X71247000Y-62103000D01*
X71267000Y-62103000D01*
X71267000Y-62357000D01*
X71247000Y-62357000D01*
X71247000Y-63506250D01*
X71405750Y-63665000D01*
X72046309Y-63665000D01*
X72279698Y-63568327D01*
X72458327Y-63389699D01*
X72555000Y-63156310D01*
X72555000Y-63154239D01*
X72846077Y-63445824D01*
X73373309Y-63664750D01*
X73690172Y-63665026D01*
X71852599Y-65502599D01*
X71687852Y-65749161D01*
X71630000Y-66040000D01*
X71630000Y-67307046D01*
X71339946Y-67500853D01*
X71112298Y-67841553D01*
X71045183Y-67698642D01*
X70616924Y-67308355D01*
X70206890Y-67138524D01*
X69977000Y-67259845D01*
X69977000Y-68453000D01*
X69997000Y-68453000D01*
X69997000Y-68707000D01*
X69977000Y-68707000D01*
X69977000Y-70993000D01*
X69997000Y-70993000D01*
X69997000Y-71247000D01*
X69977000Y-71247000D01*
X69977000Y-72440155D01*
X70206890Y-72561476D01*
X70616924Y-72391645D01*
X71045183Y-72001358D01*
X71112298Y-71858447D01*
X71339946Y-72199147D01*
X71821715Y-72521054D01*
X72390000Y-72634093D01*
X72958285Y-72521054D01*
X73440054Y-72199147D01*
X73660000Y-71869974D01*
X73879946Y-72199147D01*
X74361715Y-72521054D01*
X74930000Y-72634093D01*
X75498285Y-72521054D01*
X75694421Y-72390000D01*
X81035907Y-72390000D01*
X81148946Y-72958285D01*
X81470853Y-73440054D01*
X81811553Y-73667702D01*
X81668642Y-73734817D01*
X81278355Y-74163076D01*
X81108524Y-74573110D01*
X81229845Y-74803000D01*
X82423000Y-74803000D01*
X82423000Y-74783000D01*
X82677000Y-74783000D01*
X82677000Y-74803000D01*
X84963000Y-74803000D01*
X84963000Y-74783000D01*
X85217000Y-74783000D01*
X85217000Y-74803000D01*
X86410155Y-74803000D01*
X86531476Y-74573110D01*
X86361645Y-74163076D01*
X85971358Y-73734817D01*
X85828447Y-73667702D01*
X86169147Y-73440054D01*
X86491054Y-72958285D01*
X86604093Y-72390000D01*
X86491054Y-71821715D01*
X86169147Y-71339946D01*
X86127548Y-71312150D01*
X86175317Y-71303162D01*
X86391441Y-71164090D01*
X86536431Y-70951890D01*
X86587440Y-70700000D01*
X86587440Y-69000000D01*
X86543162Y-68764683D01*
X86404090Y-68548559D01*
X86191890Y-68403569D01*
X85940000Y-68352560D01*
X84240000Y-68352560D01*
X84004683Y-68396838D01*
X83817923Y-68517015D01*
X83651890Y-68403569D01*
X83400000Y-68352560D01*
X81700000Y-68352560D01*
X81464683Y-68396838D01*
X81248559Y-68535910D01*
X81103569Y-68748110D01*
X81052560Y-69000000D01*
X81052560Y-70700000D01*
X81096838Y-70935317D01*
X81235910Y-71151441D01*
X81448110Y-71296431D01*
X81515541Y-71310086D01*
X81470853Y-71339946D01*
X81148946Y-71821715D01*
X81035907Y-72390000D01*
X75694421Y-72390000D01*
X75980054Y-72199147D01*
X76301961Y-71717378D01*
X76415000Y-71149093D01*
X76415000Y-71090907D01*
X76301961Y-70522622D01*
X75980054Y-70040853D01*
X75694422Y-69850000D01*
X75980054Y-69659147D01*
X76301961Y-69177378D01*
X76415000Y-68609093D01*
X76415000Y-68550907D01*
X76301961Y-67982622D01*
X75980054Y-67500853D01*
X75498285Y-67178946D01*
X74970783Y-67074019D01*
X78007401Y-64037401D01*
X78172148Y-63790839D01*
X78216766Y-63566529D01*
X78453309Y-63664750D01*
X79024187Y-63665248D01*
X79551800Y-63447243D01*
X79955824Y-63043923D01*
X80009862Y-62913785D01*
X80062757Y-63041800D01*
X80466077Y-63445824D01*
X80993309Y-63664750D01*
X81564187Y-63665248D01*
X81618149Y-63642951D01*
X87402560Y-69427362D01*
X87402560Y-70700000D01*
X87446838Y-70935317D01*
X87585910Y-71151441D01*
X87798110Y-71296431D01*
X87865541Y-71310086D01*
X87820853Y-71339946D01*
X87498946Y-71821715D01*
X87385907Y-72390000D01*
X87498946Y-72958285D01*
X87820853Y-73440054D01*
X88161553Y-73667702D01*
X88018642Y-73734817D01*
X87628355Y-74163076D01*
X87458524Y-74573110D01*
X87579845Y-74803000D01*
X88773000Y-74803000D01*
X88773000Y-74783000D01*
X89027000Y-74783000D01*
X89027000Y-74803000D01*
X91313000Y-74803000D01*
X91313000Y-74783000D01*
X91567000Y-74783000D01*
X91567000Y-74803000D01*
X92760155Y-74803000D01*
X92881476Y-74573110D01*
X92711645Y-74163076D01*
X92321358Y-73734817D01*
X92178447Y-73667702D01*
X92519147Y-73440054D01*
X92841054Y-72958285D01*
X92954093Y-72390000D01*
X92841054Y-71821715D01*
X92519147Y-71339946D01*
X92477548Y-71312150D01*
X92525317Y-71303162D01*
X92741441Y-71164090D01*
X92886431Y-70951890D01*
X92937440Y-70700000D01*
X92937440Y-69000000D01*
X92893162Y-68764683D01*
X92754090Y-68548559D01*
X92541890Y-68403569D01*
X92290000Y-68352560D01*
X91017362Y-68352560D01*
X86329776Y-63664974D01*
X86644187Y-63665248D01*
X87171800Y-63447243D01*
X87575824Y-63043923D01*
X87629862Y-62913785D01*
X87682757Y-63041800D01*
X88086077Y-63445824D01*
X88613309Y-63664750D01*
X89184187Y-63665248D01*
X89687487Y-63457289D01*
X98864502Y-72634304D01*
X98928946Y-72958285D01*
X99250853Y-73440054D01*
X99580026Y-73660000D01*
X99250853Y-73879946D01*
X98928946Y-74361715D01*
X98815907Y-74930000D01*
X98928946Y-75498285D01*
X99250853Y-75980054D01*
X99467781Y-76125000D01*
X92321525Y-76125000D01*
X92711645Y-75696924D01*
X92881476Y-75286890D01*
X92760155Y-75057000D01*
X91567000Y-75057000D01*
X91567000Y-75077000D01*
X91313000Y-75077000D01*
X91313000Y-75057000D01*
X89027000Y-75057000D01*
X89027000Y-75077000D01*
X88773000Y-75077000D01*
X88773000Y-75057000D01*
X87579845Y-75057000D01*
X87458524Y-75286890D01*
X87628355Y-75696924D01*
X88018475Y-76125000D01*
X85971525Y-76125000D01*
X86361645Y-75696924D01*
X86531476Y-75286890D01*
X86410155Y-75057000D01*
X85217000Y-75057000D01*
X85217000Y-75077000D01*
X84963000Y-75077000D01*
X84963000Y-75057000D01*
X82677000Y-75057000D01*
X82677000Y-75077000D01*
X82423000Y-75077000D01*
X82423000Y-75057000D01*
X81229845Y-75057000D01*
X81108524Y-75286890D01*
X81278355Y-75696924D01*
X81668475Y-76125000D01*
X50875000Y-76125000D01*
X50875000Y-73514975D01*
X51037709Y-73908761D01*
X51787293Y-74659655D01*
X52767173Y-75066536D01*
X53828172Y-75067462D01*
X54808761Y-74662291D01*
X55559655Y-73912707D01*
X55966536Y-72932827D01*
X55967462Y-71871828D01*
X55562291Y-70891239D01*
X54812707Y-70140345D01*
X53832827Y-69733464D01*
X52771828Y-69732538D01*
X51791239Y-70137709D01*
X51040345Y-70887293D01*
X50875000Y-71285489D01*
X50875000Y-67730000D01*
X65812560Y-67730000D01*
X65812560Y-69430000D01*
X65856838Y-69665317D01*
X65977015Y-69852077D01*
X65863569Y-70018110D01*
X65812560Y-70270000D01*
X65812560Y-71970000D01*
X65856838Y-72205317D01*
X65995910Y-72421441D01*
X66208110Y-72566431D01*
X66460000Y-72617440D01*
X68160000Y-72617440D01*
X68395317Y-72573162D01*
X68611441Y-72434090D01*
X68756431Y-72221890D01*
X68778301Y-72113893D01*
X69083076Y-72391645D01*
X69493110Y-72561476D01*
X69723000Y-72440155D01*
X69723000Y-71247000D01*
X69703000Y-71247000D01*
X69703000Y-70993000D01*
X69723000Y-70993000D01*
X69723000Y-68707000D01*
X69703000Y-68707000D01*
X69703000Y-68453000D01*
X69723000Y-68453000D01*
X69723000Y-67259845D01*
X69493110Y-67138524D01*
X69083076Y-67308355D01*
X68780063Y-67584501D01*
X68763162Y-67494683D01*
X68624090Y-67278559D01*
X68411890Y-67133569D01*
X68160000Y-67082560D01*
X66460000Y-67082560D01*
X66224683Y-67126838D01*
X66008559Y-67265910D01*
X65863569Y-67478110D01*
X65812560Y-67730000D01*
X50875000Y-67730000D01*
X50875000Y-62650000D01*
X51842560Y-62650000D01*
X51842560Y-64350000D01*
X51886838Y-64585317D01*
X52007015Y-64772077D01*
X51893569Y-64938110D01*
X51842560Y-65190000D01*
X51842560Y-66890000D01*
X51886838Y-67125317D01*
X52025910Y-67341441D01*
X52238110Y-67486431D01*
X52490000Y-67537440D01*
X54190000Y-67537440D01*
X54425317Y-67493162D01*
X54641441Y-67354090D01*
X54786431Y-67141890D01*
X54808301Y-67033893D01*
X55113076Y-67311645D01*
X55523110Y-67481476D01*
X55753000Y-67360155D01*
X55753000Y-66167000D01*
X55733000Y-66167000D01*
X55733000Y-65913000D01*
X55753000Y-65913000D01*
X55753000Y-63627000D01*
X55733000Y-63627000D01*
X55733000Y-63373000D01*
X55753000Y-63373000D01*
X55753000Y-62179845D01*
X55523110Y-62058524D01*
X55113076Y-62228355D01*
X54810063Y-62504501D01*
X54793162Y-62414683D01*
X54654090Y-62198559D01*
X54441890Y-62053569D01*
X54190000Y-62002560D01*
X52490000Y-62002560D01*
X52254683Y-62046838D01*
X52038559Y-62185910D01*
X51893569Y-62398110D01*
X51842560Y-62650000D01*
X50875000Y-62650000D01*
X50875000Y-54414975D01*
X51037709Y-54808761D01*
X51787293Y-55559655D01*
X52767173Y-55966536D01*
X53828172Y-55967462D01*
X54808761Y-55562291D01*
X55559655Y-54812707D01*
X55966536Y-53832827D01*
X55967462Y-52771828D01*
X55562291Y-51791239D01*
X54812707Y-51040345D01*
X53832827Y-50633464D01*
X52771828Y-50632538D01*
X51791239Y-51037709D01*
X51040345Y-51787293D01*
X50875000Y-52185489D01*
X50875000Y-47346892D01*
X62058514Y-47346892D01*
X62304817Y-47871358D01*
X62733076Y-48261645D01*
X63143110Y-48431476D01*
X63373000Y-48310155D01*
X63373000Y-47117000D01*
X62179181Y-47117000D01*
X62058514Y-47346892D01*
X50875000Y-47346892D01*
X50875000Y-45795000D01*
X62648974Y-45795000D01*
X62304817Y-46108642D01*
G36*
X111685000Y-52330236D02*
X111462291Y-51791239D01*
X110712707Y-51040345D01*
X109732827Y-50633464D01*
X108671828Y-50632538D01*
X107691239Y-51037709D01*
X106940345Y-51787293D01*
X106533464Y-52767173D01*
X106532538Y-53828172D01*
X106937709Y-54808761D01*
X107687293Y-55559655D01*
X108667173Y-55966536D01*
X109728172Y-55967462D01*
X110708761Y-55562291D01*
X111459655Y-54812707D01*
X111685000Y-54270015D01*
X111685000Y-71430236D01*
X111462291Y-70891239D01*
X110712707Y-70140345D01*
X109732827Y-69733464D01*
X108671828Y-69732538D01*
X107691239Y-70137709D01*
X106940345Y-70887293D01*
X106533464Y-71867173D01*
X106532538Y-72928172D01*
X106937709Y-73908761D01*
X107687293Y-74659655D01*
X108667173Y-75066536D01*
X109728172Y-75067462D01*
X110708761Y-74662291D01*
X111459655Y-73912707D01*
X111685000Y-73370015D01*
X111685000Y-76125000D01*
X103732219Y-76125000D01*
X103949147Y-75980054D01*
X104271054Y-75498285D01*
X104384093Y-74930000D01*
X104311210Y-74563592D01*
X104677401Y-74197401D01*
X104842148Y-73950840D01*
X104900000Y-73660000D01*
X104900000Y-71755000D01*
X104842148Y-71464161D01*
X104677401Y-71217599D01*
X104110691Y-70650889D01*
X104141645Y-70616924D01*
X104311476Y-70206890D01*
X104190155Y-69977000D01*
X102997000Y-69977000D01*
X102997000Y-69997000D01*
X102743000Y-69997000D01*
X102743000Y-69977000D01*
X100457000Y-69977000D01*
X100457000Y-69997000D01*
X100203000Y-69997000D01*
X100203000Y-69977000D01*
X100183000Y-69977000D01*
X100183000Y-69723000D01*
X100203000Y-69723000D01*
X100203000Y-69703000D01*
X100457000Y-69703000D01*
X100457000Y-69723000D01*
X102743000Y-69723000D01*
X102743000Y-69703000D01*
X102997000Y-69703000D01*
X102997000Y-69723000D01*
X104190155Y-69723000D01*
X104311476Y-69493110D01*
X104141645Y-69083076D01*
X103865499Y-68780063D01*
X103955317Y-68763162D01*
X104171441Y-68624090D01*
X104316431Y-68411890D01*
X104367440Y-68160000D01*
X104367440Y-66460000D01*
X104323162Y-66224683D01*
X104184090Y-66008559D01*
X103971890Y-65863569D01*
X103720000Y-65812560D01*
X102020000Y-65812560D01*
X101784683Y-65856838D01*
X101597923Y-65977015D01*
X101431890Y-65863569D01*
X101180000Y-65812560D01*
X99480000Y-65812560D01*
X99244683Y-65856838D01*
X99028559Y-65995910D01*
X98883569Y-66208110D01*
X98832560Y-66460000D01*
X98832560Y-68160000D01*
X98876838Y-68395317D01*
X99015910Y-68611441D01*
X99228110Y-68756431D01*
X99336107Y-68778301D01*
X99058355Y-69083076D01*
X98888524Y-69493110D01*
X99009844Y-69722998D01*
X98845000Y-69722998D01*
X98845000Y-69828800D01*
X96010000Y-66993800D01*
X96010000Y-63572024D01*
X96233309Y-63664750D01*
X96804187Y-63665248D01*
X97331800Y-63447243D01*
X97735824Y-63043923D01*
X97789862Y-62913785D01*
X97842757Y-63041800D01*
X98246077Y-63445824D01*
X98773309Y-63664750D01*
X99344187Y-63665248D01*
X99871800Y-63447243D01*
X100275824Y-63043923D01*
X100329862Y-62913785D01*
X100382757Y-63041800D01*
X100786077Y-63445824D01*
X101313309Y-63664750D01*
X101884187Y-63665248D01*
X102411800Y-63447243D01*
X102815824Y-63043923D01*
X102869862Y-62913785D01*
X102922757Y-63041800D01*
X103326077Y-63445824D01*
X103853309Y-63664750D01*
X104424187Y-63665248D01*
X104951800Y-63447243D01*
X105355824Y-63043923D01*
X105574750Y-62516691D01*
X105575248Y-61945813D01*
X105357243Y-61418200D01*
X104953923Y-61014176D01*
X104823785Y-60960138D01*
X104951800Y-60907243D01*
X105355824Y-60503923D01*
X105574750Y-59976691D01*
X105575248Y-59405813D01*
X105357243Y-58878200D01*
X104953923Y-58474176D01*
X104823785Y-58420138D01*
X104951800Y-58367243D01*
X105355824Y-57963923D01*
X105574750Y-57436691D01*
X105575248Y-56865813D01*
X105357243Y-56338200D01*
X104953923Y-55934176D01*
X104823785Y-55880138D01*
X104951800Y-55827243D01*
X105355824Y-55423923D01*
X105574750Y-54896691D01*
X105575248Y-54325813D01*
X105357243Y-53798200D01*
X104953923Y-53394176D01*
X104823785Y-53340138D01*
X104951800Y-53287243D01*
X105355824Y-52883923D01*
X105574750Y-52356691D01*
X105575248Y-51785813D01*
X105357243Y-51258200D01*
X104953923Y-50854176D01*
X104823785Y-50800138D01*
X104951800Y-50747243D01*
X105355824Y-50343923D01*
X105574750Y-49816691D01*
X105575248Y-49245813D01*
X105357243Y-48718200D01*
X104953923Y-48314176D01*
X104823785Y-48260138D01*
X104951800Y-48207243D01*
X105355824Y-47803923D01*
X105574750Y-47276691D01*
X105575248Y-46705813D01*
X105357243Y-46178200D01*
X104974711Y-45795000D01*
X111685000Y-45795000D01*
X111685000Y-52330236D01*
X111685000Y-52330236D01*
G37*
X111685000Y-52330236D02*
X111462291Y-51791239D01*
X110712707Y-51040345D01*
X109732827Y-50633464D01*
X108671828Y-50632538D01*
X107691239Y-51037709D01*
X106940345Y-51787293D01*
X106533464Y-52767173D01*
X106532538Y-53828172D01*
X106937709Y-54808761D01*
X107687293Y-55559655D01*
X108667173Y-55966536D01*
X109728172Y-55967462D01*
X110708761Y-55562291D01*
X111459655Y-54812707D01*
X111685000Y-54270015D01*
X111685000Y-71430236D01*
X111462291Y-70891239D01*
X110712707Y-70140345D01*
X109732827Y-69733464D01*
X108671828Y-69732538D01*
X107691239Y-70137709D01*
X106940345Y-70887293D01*
X106533464Y-71867173D01*
X106532538Y-72928172D01*
X106937709Y-73908761D01*
X107687293Y-74659655D01*
X108667173Y-75066536D01*
X109728172Y-75067462D01*
X110708761Y-74662291D01*
X111459655Y-73912707D01*
X111685000Y-73370015D01*
X111685000Y-76125000D01*
X103732219Y-76125000D01*
X103949147Y-75980054D01*
X104271054Y-75498285D01*
X104384093Y-74930000D01*
X104311210Y-74563592D01*
X104677401Y-74197401D01*
X104842148Y-73950840D01*
X104900000Y-73660000D01*
X104900000Y-71755000D01*
X104842148Y-71464161D01*
X104677401Y-71217599D01*
X104110691Y-70650889D01*
X104141645Y-70616924D01*
X104311476Y-70206890D01*
X104190155Y-69977000D01*
X102997000Y-69977000D01*
X102997000Y-69997000D01*
X102743000Y-69997000D01*
X102743000Y-69977000D01*
X100457000Y-69977000D01*
X100457000Y-69997000D01*
X100203000Y-69997000D01*
X100203000Y-69977000D01*
X100183000Y-69977000D01*
X100183000Y-69723000D01*
X100203000Y-69723000D01*
X100203000Y-69703000D01*
X100457000Y-69703000D01*
X100457000Y-69723000D01*
X102743000Y-69723000D01*
X102743000Y-69703000D01*
X102997000Y-69703000D01*
X102997000Y-69723000D01*
X104190155Y-69723000D01*
X104311476Y-69493110D01*
X104141645Y-69083076D01*
X103865499Y-68780063D01*
X103955317Y-68763162D01*
X104171441Y-68624090D01*
X104316431Y-68411890D01*
X104367440Y-68160000D01*
X104367440Y-66460000D01*
X104323162Y-66224683D01*
X104184090Y-66008559D01*
X103971890Y-65863569D01*
X103720000Y-65812560D01*
X102020000Y-65812560D01*
X101784683Y-65856838D01*
X101597923Y-65977015D01*
X101431890Y-65863569D01*
X101180000Y-65812560D01*
X99480000Y-65812560D01*
X99244683Y-65856838D01*
X99028559Y-65995910D01*
X98883569Y-66208110D01*
X98832560Y-66460000D01*
X98832560Y-68160000D01*
X98876838Y-68395317D01*
X99015910Y-68611441D01*
X99228110Y-68756431D01*
X99336107Y-68778301D01*
X99058355Y-69083076D01*
X98888524Y-69493110D01*
X99009844Y-69722998D01*
X98845000Y-69722998D01*
X98845000Y-69828800D01*
X96010000Y-66993800D01*
X96010000Y-63572024D01*
X96233309Y-63664750D01*
X96804187Y-63665248D01*
X97331800Y-63447243D01*
X97735824Y-63043923D01*
X97789862Y-62913785D01*
X97842757Y-63041800D01*
X98246077Y-63445824D01*
X98773309Y-63664750D01*
X99344187Y-63665248D01*
X99871800Y-63447243D01*
X100275824Y-63043923D01*
X100329862Y-62913785D01*
X100382757Y-63041800D01*
X100786077Y-63445824D01*
X101313309Y-63664750D01*
X101884187Y-63665248D01*
X102411800Y-63447243D01*
X102815824Y-63043923D01*
X102869862Y-62913785D01*
X102922757Y-63041800D01*
X103326077Y-63445824D01*
X103853309Y-63664750D01*
X104424187Y-63665248D01*
X104951800Y-63447243D01*
X105355824Y-63043923D01*
X105574750Y-62516691D01*
X105575248Y-61945813D01*
X105357243Y-61418200D01*
X104953923Y-61014176D01*
X104823785Y-60960138D01*
X104951800Y-60907243D01*
X105355824Y-60503923D01*
X105574750Y-59976691D01*
X105575248Y-59405813D01*
X105357243Y-58878200D01*
X104953923Y-58474176D01*
X104823785Y-58420138D01*
X104951800Y-58367243D01*
X105355824Y-57963923D01*
X105574750Y-57436691D01*
X105575248Y-56865813D01*
X105357243Y-56338200D01*
X104953923Y-55934176D01*
X104823785Y-55880138D01*
X104951800Y-55827243D01*
X105355824Y-55423923D01*
X105574750Y-54896691D01*
X105575248Y-54325813D01*
X105357243Y-53798200D01*
X104953923Y-53394176D01*
X104823785Y-53340138D01*
X104951800Y-53287243D01*
X105355824Y-52883923D01*
X105574750Y-52356691D01*
X105575248Y-51785813D01*
X105357243Y-51258200D01*
X104953923Y-50854176D01*
X104823785Y-50800138D01*
X104951800Y-50747243D01*
X105355824Y-50343923D01*
X105574750Y-49816691D01*
X105575248Y-49245813D01*
X105357243Y-48718200D01*
X104953923Y-48314176D01*
X104823785Y-48260138D01*
X104951800Y-48207243D01*
X105355824Y-47803923D01*
X105574750Y-47276691D01*
X105575248Y-46705813D01*
X105357243Y-46178200D01*
X104974711Y-45795000D01*
X111685000Y-45795000D01*
X111685000Y-52330236D01*
M02*
