<?xml version="1.0" encoding="UTF-8" standalone="no"?>
<svg
   xmlns:dc="http://purl.org/dc/elements/1.1/"
   xmlns:cc="http://creativecommons.org/ns#"
   xmlns:rdf="http://www.w3.org/1999/02/22-rdf-syntax-ns#"
   xmlns:svg="http://www.w3.org/2000/svg"
   xmlns="http://www.w3.org/2000/svg"
   xmlns:xlink="http://www.w3.org/1999/xlink"
   xmlns:sodipodi="http://sodipodi.sourceforge.net/DTD/sodipodi-0.dtd"
   xmlns:inkscape="http://www.inkscape.org/namespaces/inkscape"
   width="210mm"
   height="297mm"
   viewBox="0 0 210 297"
   version="1.1"
   id="svg8"
   inkscape:version="1.0.2 (e86c8708, 2021-01-15)"
   sodipodi:docname="map1.svg">
  <defs
     id="defs2" />
  <sodipodi:namedview
     id="base"
     pagecolor="#ffffff"
     bordercolor="#666666"
     borderopacity="1.0"
     inkscape:pageopacity="0.0"
     inkscape:pageshadow="2"
     inkscape:zoom="1.4"
     inkscape:cx="442.85714"
     inkscape:cy="252.14286"
     inkscape:document-units="mm"
     inkscape:current-layer="layer1"
     inkscape:document-rotation="0"
     showgrid="false"
     inkscape:window-width="1252"
     inkscape:window-height="943"
     inkscape:window-x="0"
     inkscape:window-y="23"
     inkscape:window-maximized="0" />
  <metadata
     id="metadata5">
    <rdf:RDF>
      <cc:Work
         rdf:about="">
        <dc:format>image/svg+xml</dc:format>
        <dc:type
           rdf:resource="http://purl.org/dc/dcmitype/StillImage" />
        <dc:title />
      </cc:Work>
    </rdf:RDF>
  </metadata>
  <g
     inkscape:label="Layer 1"
     inkscape:groupmode="layer"
     id="layer1">
    <image
       sodipodi:absref="../ceilslam/map.png"
       xlink:href="../ceilslam/map.png"
       y="-2.6458371"
       x="-5.4495677e-06"
       id="image20"
       preserveAspectRatio="none"
       height="132.29167"
       width="264.58334" />
    <path
       style="fill:none;stroke:#000000;stroke-width:0.264583px;stroke-linecap:butt;stroke-linejoin:miter;stroke-opacity:1"
       d="M 71.059523,30.049107 C 78.902528,23.434524 91.09226,23.8125 127,23.245535 c 35.90774,-0.566964 44.97916,-0.755952 49.32589,2.456846 4.34673,3.212796 10.20536,10.016369 12.09524,18.520833 1.88988,8.504463 4.91369,27.025296 3.96875,37.230653 -0.94494,10.205358 -4.34673,19.465773 -11.71726,24.946433 -7.37054,5.48065 -21.16667,6.42559 -29.48215,4.7247 -8.31547,-1.70089 -21.1535,-6.287 -27.21428,-12.09524 -4.53572,-4.346724 -10.01637,-12.473213 -2.45685,-24.568452 7.55952,-12.095237 24.19048,-24.190475 30.2381,-25.135416 6.04762,-0.944941 15.43686,0.507526 17.76488,8.126489 2.07887,6.803571 1.13393,10.016369 -1.70089,13.79613 -3.49316,4.657555 -10.20536,6.236606 -15.875,4.91369 -5.66964,-1.322917 -23.62351,-17.764879 -29.86012,-21.544643 -6.23661,-3.77976 -11.90625,-6.803569 -21.73363,-6.992558 -6.093558,-0.117184 -17.764884,-1.511905 -23.05655,7.370534 -3.456485,5.801957 1.133929,14.552084 4.91369,18.709823 3.779763,4.157737 17.30184,11.027502 14.552083,19.276784 C 94.683036,99.21875 85.834752,98.802023 79.941965,97.328868 70.378758,94.938133 67.279762,92.793154 61.988095,87.879462 57.856564,84.043039 54.995534,74.27232 55.184524,67.657737 55.373513,61.043154 57.830357,52.3497 60.47619,47.247023 63.122024,42.144345 63.216518,36.66369 71.059523,30.049107 Z"
       id="path24"
       sodipodi:nodetypes="zsssssssssssssssssssssz" />
  </g>
</svg>
